<svg width="16" height="16" viewBox="0 0 16 16" fill="none" xmlns="http://www.w3.org/2000/svg">
<g clip-path="url(#clip0_4648_8934)">
<path d="M6 6C6 5.82319 6.07024 5.65362 6.19526 5.5286C6.32029 5.40357 6.48986 5.33333 6.66667 5.33333H7.33333V4.66667C7.33333 4.48986 7.40357 4.32029 7.5286 4.19526C7.65362 4.07024 7.82319 4 8 4C8.17681 4 8.34638 4.07024 8.4714 4.19526C8.59643 4.32029 8.66667 4.48986 8.66667 4.66667V5.33333H9.33333C9.51014 5.33333 9.67971 5.40357 9.80474 5.5286C9.92976 5.65362 10 5.82319 10 6C10 6.17681 9.92976 6.34638 9.80474 6.4714C9.67971 6.59643 9.51014 6.66667 9.33333 6.66667H8.66667V7.33333C8.66667 7.51014 8.59643 7.67971 8.4714 7.80474C8.34638 7.92976 8.17681 8 8 8C7.82319 8 7.65362 7.92976 7.5286 7.80474C7.40357 7.67971 7.33333 7.51014 7.33333 7.33333V6.66667H6.66667C6.48986 6.66667 6.32029 6.59643 6.19526 6.4714C6.07024 6.34638 6 6.17681 6 6ZM10.6667 9.33333H5.33333C5.15652 9.33333 4.98695 9.40357 4.86193 9.5286C4.7369 9.65362 4.66667 9.82319 4.66667 10C4.66667 10.1768 4.7369 10.3464 4.86193 10.4714C4.98695 10.5964 5.15652 10.6667 5.33333 10.6667H10.6667C10.8435 10.6667 11.013 10.5964 11.1381 10.4714C11.2631 10.3464 11.3333 10.1768 11.3333 10C11.3333 9.82319 11.2631 9.65362 11.1381 9.5286C11.013 9.40357 10.8435 9.33333 10.6667 9.33333ZM8 12H5.33333C5.15652 12 4.98695 12.0702 4.86193 12.1953C4.7369 12.3203 4.66667 12.4899 4.66667 12.6667C4.66667 12.8435 4.7369 13.013 4.86193 13.1381C4.98695 13.2631 5.15652 13.3333 5.33333 13.3333H8C8.17681 13.3333 8.34638 13.2631 8.4714 13.1381C8.59643 13.013 8.66667 12.8435 8.66667 12.6667C8.66667 12.4899 8.59643 12.3203 8.4714 12.1953C8.34638 12.0702 8.17681 12 8 12ZM14 4.66667V12.6667C13.9989 13.5504 13.6474 14.3976 13.0225 15.0225C12.3976 15.6474 11.5504 15.9989 10.6667 16H5.33333C4.4496 15.9989 3.60237 15.6474 2.97748 15.0225C2.35259 14.3976 2.00106 13.5504 2 12.6667V4.66667C2.00106 3.78294 2.35259 2.93571 2.97748 2.31081C3.60237 1.68592 4.4496 1.33439 5.33333 1.33333H5.44733C5.58572 0.943661 5.84127 0.60634 6.17892 0.367629C6.51658 0.128917 6.91982 0.000504499 7.33333 0L8.66667 0C9.08018 0.000504499 9.48342 0.128917 9.82108 0.367629C10.1587 0.60634 10.4143 0.943661 10.5527 1.33333H10.6667C11.5504 1.33439 12.3976 1.68592 13.0225 2.31081C13.6474 2.93571 13.9989 3.78294 14 4.66667ZM12.6667 4.66667C12.6667 4.13623 12.456 3.62753 12.0809 3.25245C11.7058 2.87738 11.1971 2.66667 10.6667 2.66667H10C9.82319 2.66667 9.65362 2.59643 9.5286 2.4714C9.40357 2.34638 9.33333 2.17681 9.33333 2C9.33333 1.82319 9.2631 1.65362 9.13807 1.5286C9.01305 1.40357 8.84348 1.33333 8.66667 1.33333H7.33333C7.15652 1.33333 6.98695 1.40357 6.86193 1.5286C6.7369 1.65362 6.66667 1.82319 6.66667 2C6.66667 2.17681 6.59643 2.34638 6.4714 2.4714C6.34638 2.59643 6.17681 2.66667 6 2.66667H5.33333C4.8029 2.66667 4.29419 2.87738 3.91912 3.25245C3.54405 3.62753 3.33333 4.13623 3.33333 4.66667V12.6667C3.33333 13.1971 3.54405 13.7058 3.91912 14.0809C4.29419 14.456 4.8029 14.6667 5.33333 14.6667H10.6667C11.1971 14.6667 11.7058 14.456 12.0809 14.0809C12.456 13.7058 12.6667 13.1971 12.6667 12.6667V4.66667Z" fill="#A37D41"/>
</g>
<defs>
<clipPath id="clip0_4648_8934">
<rect width="16" height="16" fill="white"/>
</clipPath>
</defs>
</svg>
