<svg width="67" height="47" viewBox="0 0 67 47" fill="none" xmlns="http://www.w3.org/2000/svg">
<path d="M41.9912 15.4673C44.7332 12.9205 48.206 11.8652 51.9638 12.0137C55.1073 12.1379 56.532 12.9681 58.4461 14.974C61.1728 17.8314 61.4988 21.7435 60.4406 25.3351C59.3616 28.9976 55.8663 30.2635 52.4625 31.7492C48.7168 33.3841 45.7722 33.4494 42.4898 31.7492C39.2347 30.0631 37.9407 28.3154 38.0021 24.3483C38.0554 20.902 39.4514 17.8263 41.9912 15.4673Z" fill="white" fill-opacity="0.27" stroke="white" stroke-width="3"/>
<path d="M23.0609 15.5138C20.3114 12.9328 16.829 11.8634 13.0609 12.0139C9.90886 12.1397 8.48027 12.9811 6.56091 15.0139C3.82672 17.9096 3.49979 21.8741 4.5609 25.5139C5.6429 29.2253 9.14776 30.5082 12.5609 32.0139C16.3168 33.6707 19.2695 33.7369 22.5609 32.0139C25.8249 30.3052 27.1224 28.534 27.0609 24.5138C27.0074 21.0213 25.6076 17.9044 23.0609 15.5138Z" fill="white" fill-opacity="0.27" stroke="white" stroke-width="3"/>
</svg>
