<svg width="67" height="47" viewBox="0 0 67 47" fill="none" xmlns="http://www.w3.org/2000/svg">
<path d="M41.9911 14.5C47 14.5 50.2422 14.3515 54 14.5C57.1434 14.6242 58.8499 14.7333 60 15.5C61.5 16.5 61.0582 20.9084 60 24.5C58.9209 28.1624 56.4038 30.0143 53 31.5C49.2543 33.135 44.5 32 41.5 29C38.9078 26.4079 37.9921 22.4369 37.5 18.5C37 14.5 38.5249 14.5 41.9911 14.5Z" fill="white" stroke="#3C3C4A" stroke-width="3"/>
<path d="M25 15.0138C21 14.5 17.5 15.0139 13.5 15.0139C10.3454 15.0139 5.94419 14.5 5 15.5C4.05581 16.5 4.42855 23.5 5.5 26C6.57144 28.5 8.99999 30.568 11.5 31.5C14 32.432 17.7086 32.723 21 31C24.264 29.2913 26.5 27 27.5 23C29 16.9999 28.7846 15.5 25 15.0138Z" fill="white" stroke="#3C3C4A" stroke-width="3"/>
</svg>
