<svg width="67" height="47" viewBox="0 0 67 47" fill="none" xmlns="http://www.w3.org/2000/svg">
<path d="M43.5 17.5C43.5 17.5 46.5 14.1026 51 14C54.1537 13.9281 56.8885 14.7438 58.5 17C61 20.5 62.7466 22.5046 60.5 25.5C59 27.5 54.9038 29.5143 51.5 31C47.7543 32.6349 43.1893 33.5 41.5 33.5C38 33.5 38.4145 28.7204 39 25.5C39.8182 21 43.5 17.5 43.5 17.5Z" fill="white" stroke="#3C3C4A" stroke-width="3"/>
<path d="M22 16.5C19.31 14.2295 17.0052 13.1762 13.5 13.5C10.4566 13.7811 8.41936 14.9672 6.5 17C3.76582 19.8957 3.00001 22 3.5 23.5C4.33333 26 10.5869 27.9944 14 29.5C17.7559 31.1569 21.6347 34 24.5 32.5C26 31.7148 26.5863 28.3418 26.5 25.5C26.3808 21.5722 25.0029 19.0346 22 16.5Z" fill="white" stroke="#3C3C4A" stroke-width="3"/>
</svg>
