<svg width="67" height="47" viewBox="0 0 67 47" fill="none" xmlns="http://www.w3.org/2000/svg">
<path d="M38.5 19C41.5 15.5 44.5 14 48 12.5C51.2751 11.0964 54.6065 10.5 57 12.5C59.8508 14.8822 60.2114 19.1055 59 23.5C57.9622 27.2648 56.4038 30.0143 53 31.5C49.2543 33.1349 45.5 31.5 45.5 31.5C45.5 31.5 39.9636 29.4857 38.5 26.5C37.4544 24.367 36.5939 21.2238 38.5 19Z" fill="white" fill-opacity="0.27" stroke="white" stroke-width="3"/>
<path d="M27.5 18.5C26.5 16.5 20 17 15.5 17C12.4437 17 6.25029 15.4994 5 18C4 20 5.00001 24 6.00001 26C7.17853 28.357 9.08687 30.4944 12.5 32C16.2559 33.6569 19.1347 33 22 31.5C23.5 30.7147 25.2286 29.0429 26.5 26.5C27.5 24.5 28 19.5 27.5 18.5Z" fill="white" fill-opacity="0.27" stroke="white" stroke-width="3"/>
</svg>
