<svg width="67" height="47" viewBox="0 0 67 47" fill="none" xmlns="http://www.w3.org/2000/svg">
<path d="M43.5 18C47 16.5 49.5433 15.4815 53 14C56.5 12.5 59.1164 13 60.4406 15.5C61.7648 18 61.4988 21.4083 60.4406 25C59.3616 28.6624 55.4038 32.0143 52 33.5C48.2543 35.1349 45 34 43 32.5C39 29.5 37.4691 26 37.5 24C37.5533 20.5536 40.314 19.3654 43.5 18Z" fill="white" stroke="#E9463A" stroke-width="3"/>
<path d="M21.7402 17.8478C18.0861 15.8908 16.6348 15.3341 13.1333 14.2625C9.78618 13.2381 6.67475 12.0261 5.00456 14.2625C3.09191 16.8234 4.28731 23.482 5.48272 26.043C6.9172 29.1161 8.91292 31.1591 12.177 32.7015C15.7689 34.3988 18.5926 34.4666 21.7402 32.7015C24.8617 30.9511 27 27.6008 27 23.482C27 21.4332 24.6092 19.3844 21.7402 17.8478Z" fill="white" stroke="#E9463A" stroke-width="3"/>
</svg>
