<svg width="67" height="47" viewBox="0 0 67 47" fill="none" xmlns="http://www.w3.org/2000/svg">
<path d="M39.5 15C41 12.7501 46.4322 13.8108 50 15C54.5 16.5 59.1667 19 59.5 19.5C60.5 20.9999 60.5582 24.9083 59.5 28.5C59 30.1971 55.5 31 51 31.5C46.938 31.9513 41.5 32.5 40 31.5C38.8233 30.7155 37.4386 27.9671 37.5 24C37.5533 20.5536 38.5 16.5 39.5 15Z" fill="white" fill-opacity="0.27" stroke="white" stroke-width="3"/>
<path d="M25.5 13.5C24.4347 12.5 19 13.5 14.5 14.5001C11.4206 15.1844 6.91938 15.9673 5.00002 18C4.50002 18.5296 3.93893 23.3602 5.00002 27C5.72883 29.5 10.2923 30.5882 14 31.0001C18.5 31.5 22.5 31.9999 24.5 31.5C26.5919 30.9771 27.5615 26.5203 27.5 22.5001C27.4466 19.0075 27 14.9082 25.5 13.5Z" fill="white" fill-opacity="0.27" stroke="white" stroke-width="3"/>
</svg>
