<svg width="67" height="47" viewBox="0 0 67 47" fill="none" xmlns="http://www.w3.org/2000/svg">
<path d="M52.4625 28C54.8538 26.2936 56.5 25.3351 57.5 23.5C58.8795 20.9684 60.0859 14.9941 62 17C64.7267 19.8574 61.4988 21.7435 60.4406 25.3351C59.3616 28.9975 55.8663 30.2635 52.4625 31.7492C48.7168 33.3841 44.5853 34.0996 41 35C38.0102 35.7508 38.7385 31.8481 41 31C45 29.5 48.3296 30.9492 52.4625 28Z" fill="white" fill-opacity="0.27" stroke="white" stroke-width="3"/>
<path d="M14.9998 29.4999C11.4223 28.3075 10.5 28 8.5 25.5139C6.52271 23.0559 6.48026 15.4672 4.5609 17.5C1.82671 20.3957 3.49979 21.8741 4.5609 25.5139C5.6429 29.2254 9.14776 30.5082 12.5609 32.0139C16.3168 33.6707 17.7849 34 21.5 34C24 34 27.5207 30.5 23.5 30.5C21.5 30.5 18 30.5 15 29.5L14.9998 29.4999Z" fill="white" fill-opacity="0.27" stroke="white" stroke-width="3"/>
</svg>
