<svg width="67" height="47" viewBox="0 0 67 47" fill="none" xmlns="http://www.w3.org/2000/svg">
<path d="M26.5 21.5C25.4052 20.799 20.5 21.3989 15.3162 21.3989C12.0321 21.3989 5.09478 20.799 4.00001 21.5C2.90523 22.2009 2.90523 24.2991 4 25C5.09477 25.7009 7.57352 25.3248 12.5 25.5C17.4265 25.6752 19.5 25.5 22.5 25.5C24.235 25.5 27 25.4964 27 24.5C27 23.1763 27.0474 21.8505 26.5 21.5Z" fill="white" fill-opacity="0.27" stroke="white" stroke-width="3"/>
<path d="M37.5048 21.3079C38.6077 20.6733 43.5496 21.2164 48.7721 21.2164C52.0807 21.2164 59.0698 20.6733 60.1728 21.3079C61.2757 21.9425 61.2757 23.8422 60.1728 24.4768C59.0698 25.1114 56.5726 24.7708 51.6093 24.9295C46.6461 25.0881 44.557 24.9295 41.5346 24.9295C39.7866 24.9295 37.001 24.9262 37.001 24.0241C37.001 22.8257 36.9533 21.6252 37.5048 21.3079Z" fill="white" fill-opacity="0.27" stroke="white" stroke-width="3"/>
</svg>
