<svg width="67" height="47" viewBox="0 0 67 47" fill="none" xmlns="http://www.w3.org/2000/svg">
<path d="M38 17.5C39.5 13.5001 43.5 10.7143 46 10C49.5 9.00001 55.7944 11.2945 58 13.5C60 15.5 60.7114 19.1055 59.5 23.5C58.4622 27.2648 56.4038 30.5143 53 32C49.2543 33.6349 45 32 45 32C45 32 39.9636 29.4857 38.5 26.5C37.4544 24.367 36.9716 20.2425 38 17.5Z" fill="white" fill-opacity="0.27" stroke="white" stroke-width="3"/>
<path d="M25.5 11.4465C24.5 9.44648 20.5 10.5 15.9142 11.4465C12.921 12.0643 6.41423 13 5.41423 15C4.41423 17 4.41423 21.5 5.41423 23.5C6.41422 25.5 8.5 26 13 26.5C17.5 27 23 28 25.5 27C27.072 26.3712 27.5 21.8431 27.5 19C27.5 15.2232 26 12.4465 25.5 11.4465Z" fill="white" fill-opacity="0.27" stroke="white" stroke-width="3"/>
</svg>
