<svg xmlns="http://www.w3.org/2000/svg" width="512" height="512" viewBox="0 0 512 512" role="img" aria-label="GreenStudio Tools logo">
  <circle cx="256" cy="256" r="256" fill="#EFEFEF"/>
  <path d="M158 362c-54-86-40-173 22-236 30-30 65-53 90-81 48 63 77 116 95 167-96 24-163 71-207 150z" fill="#11B389"/>
  <path d="M176 412V302c0-98 66-167 189-199 27 108 19 241-72 295-38 22-76 31-117 30z" fill="#10B68F"/>
  <path d="M176 412V302c0-103 66-175 200-212" fill="none" stroke="#EFEFEF" stroke-width="26" stroke-linecap="round"/>
</svg>
